<?xml version="1.0" encoding="UTF-8" standalone="no"?>
<!-- Created with Inkscape (http://www.inkscape.org/) -->

<svg
   width="104.76866mm"
   height="14.33086mm"
   viewBox="0 0 104.76866 14.33086"
   version="1.1"
   id="svg1"
   xmlns:inkscape="http://www.inkscape.org/namespaces/inkscape"
   xmlns:sodipodi="http://sodipodi.sourceforge.net/DTD/sodipodi-0.dtd"
   xmlns="http://www.w3.org/2000/svg"
   xmlns:svg="http://www.w3.org/2000/svg">
  <sodipodi:namedview
     id="namedview1"
     pagecolor="#ffffff"
     bordercolor="#000000"
     borderopacity="0.25"
     inkscape:showpageshadow="2"
     inkscape:pageopacity="0.0"
     inkscape:pagecheckerboard="0"
     inkscape:deskcolor="#d1d1d1"
     inkscape:document-units="mm" />
  <defs
     id="defs1" />
  <g
     inkscape:label="Layer 1"
     inkscape:groupmode="layer"
     id="layer1"
     transform="translate(-42.360509,-120.1277)">
    <path
       style="font-size:12.7px;font-family:'PistOl Sex';-inkscape-font-specification:'PistOl Sex';fill:#ffffff;stroke-width:1.05833"
       d="m 50.465439,120.51838 q 0.08682,0.14262 0.09302,0.34726 v 0.31626 h 0.02481 l -0.02481,0.0744 0.06201,0.71933 -0.0186,0.0558 0.05581,0.74414 -0.0186,0.0558 q -0.136426,0.0744 -0.310059,0.0806 -0.155029,0 -0.353467,0.0372 l -0.173633,-0.0186 -0.192236,0.0186 q -0.16123,0 -0.390674,0.0372 l -0.07441,-0.0186 -2.759521,0.17363 -0.117823,0.0186 -0.03721,-0.0186 h -0.04341 q -0.173633,0.006 -0.365869,0.062 l 0.0186,0.63872 0.0186,0.0558 0.06201,1.20922 1.122412,-0.0806 0.04341,0.0186 1.841748,-0.093 0.06201,-0.0248 0.0186,0.0248 0.05581,-0.0248 0.564307,-0.0186 0.08062,-0.0186 0.03721,0.0186 h 0.03721 l 0.235644,-0.0186 0.117823,1.09141 -0.02481,0.25425 0.02481,0.0558 -0.02481,0.19224 0.06201,0.19843 -0.03721,0.15503 0.0186,0.0558 -0.0186,0.21704 h -0.471289 l -0.05581,0.0372 h -0.638721 l -0.254248,0.0372 -0.06201,-0.0186 q -0.136426,0.0186 -0.310059,0.0186 l -0.347266,0.062 -0.173632,-0.0248 -0.06201,0.0248 -0.136426,-0.0248 -0.05581,0.0248 h -0.05581 l -0.06201,0.0186 -0.0186,-0.0186 -0.892969,0.0744 -0.173633,-0.0186 -0.06201,0.0186 h -0.272851 l 0.02481,0.13643 v 0.27285 l 0.0186,0.0558 0.155029,3.05098 0.03721,0.13642 -0.0186,0.27286 0.0186,0.062 0.0186,0.40307 -0.03721,0.16123 H 45.74015 l -0.05581,0.0186 -2.449463,0.11162 -0.07441,0.0248 -0.198437,-0.0248 -0.0186,-0.15503 0.0186,-0.0372 -0.03721,-0.71933 -0.0186,-0.0744 v -0.33486 l -0.0186,-0.0744 -0.04341,-0.87436 -0.0186,-0.0186 0.0186,-0.0434 v -0.11162 l -0.0186,-0.062 v -0.32866 l -0.0186,-0.0806 -0.0186,-0.62012 -0.0186,-0.0806 -0.0186,-0.15502 0.0186,-0.0372 -0.0186,-0.0372 0.0186,-0.0186 v -0.062 h -0.0186 l 0.0186,-0.0186 -0.117823,-1.42007 0.03721,-0.0558 -0.03721,-0.0558 q 0.0186,-0.14262 0.0186,-0.31626 l -0.03721,-0.69453 h -0.0186 l 0.0186,-0.0806 -0.09922,-1.73013 -0.03721,-0.27285 0.0186,-0.13643 -0.0186,-0.093 0.0186,-0.062 -0.0186,-0.0186 -0.0186,-0.19224 0.0186,-0.15503 -0.03721,-0.11782 0.0186,-0.21704 -0.05581,-0.65732 0.0186,-0.15503 -0.0186,-0.0434 v -0.32866 l -0.02481,-0.0558 -0.03721,-0.19844 0.08062,-0.0186 0.855762,-0.0744 0.07441,0.0186 1.475879,-0.0992 0.06201,0.0186 0.675928,-0.0558 0.04341,0.0186 0.0186,-0.0186 4.328418,-0.23565 0.08062,-0.0186 h 0.328662 z m 4.167188,1.42007 2.300635,0.093 0.663525,0.11783 0.576709,0.21084 0.483691,0.30385 0.21084,0.18604 0.179834,0.21084 0.148828,0.24184 q 0.08682,0.11163 0.15503,0.27286 l 0.210839,0.5705 0.09302,0.69453 0.05581,5.07876 0.272851,0.72554 -0.117822,0.062 h -3.175 q -0.117822,-0.0744 -0.186035,-0.21084 l -0.05581,-0.33486 v -0.21084 l -0.124023,0.062 -0.21084,0.17984 -0.483691,0.30385 -0.303858,0.093 -0.241846,0.14883 -0.328662,0.062 q -0.117822,0.062 -0.272851,0.11782 l -1.147217,-0.031 -0.607715,-0.11783 q -0.136426,-0.0248 -0.303857,-0.093 l -0.241846,-0.0868 -0.725537,-0.48369 -0.179834,-0.21704 -0.303857,-0.48369 -0.179834,-0.60152 v -0.39067 q -0.0186,-0.10542 -0.03101,-0.24185 l 0.03101,-0.093 0.03101,-0.36587 0.179834,-0.63252 0.15503,-0.24185 0.179834,-0.21084 0.421679,-0.36587 0.241846,-0.14883 1.147217,-0.39067 2.846338,-0.45268 0.210839,-0.15503 0.148829,-0.24185 q 0.0248,-0.0992 0.03101,-0.24185 v -0.0868 h -0.03101 q -0.02481,-0.14883 -0.117823,-0.27285 l -0.186035,-0.21084 -0.272851,-0.12403 -0.359668,-0.031 -0.09302,-0.031 -0.570508,0.093 q -0.124023,0.0558 -0.241845,0.14883 -0.10542,0.0868 -0.186036,0.21084 l -0.148828,0.24184 q -0.04341,0.11162 -0.179834,0.18604 h -2.75332 q -0.04341,-0.16123 -0.06201,-0.36587 l 0.15503,-0.63252 q 0.06201,-0.11782 0.117822,-0.27285 l 0.155029,-0.24185 0.359668,-0.42168 0.241846,-0.15503 0.21084,-0.17983 0.545703,-0.24185 q 0.142627,-0.0248 0.303857,-0.093 z m 1.575097,4.99194 -0.365869,0.17983 -1.27124,0.33487 q -0.155029,0.0868 -0.297656,0.21084 -0.09922,0.14262 -0.186035,0.32866 v 0.24184 l 0.06201,0.24185 q 0.117823,0.13022 0.272852,0.24185 0.167432,0.093 0.365869,0.15503 h 0.539502 l 0.396875,-0.12403 q 0.161231,-0.0868 0.328662,-0.21084 0.09922,-0.14883 0.186035,-0.33486 l 0.117823,-0.39068 v -0.87436 z m 4.582666,-5.38262 0.334863,0.0248 0.07441,-0.0248 0.223242,0.0248 0.198438,-0.0248 0.04341,0.0248 h 0.42168 l 0.124023,-0.0248 0.06821,0.0248 h 0.396875 l 0.124023,-0.0248 0.07441,0.0248 h 0.341065 v -0.0248 l 0.07441,0.0248 0.272851,-0.0248 0.341065,0.0248 q 0.111621,0.0248 0.192236,0.0992 l 0.291455,0.34106 0.173633,0.14883 0.124024,0.18603 0.173632,0.14883 0.440284,0.5395 0.173632,0.14883 1.203028,1.38286 0.173632,0.14263 q 0.04961,0.093 0.142627,0.16743 0.05581,0.093 0.148829,0.19224 l 0.117822,0.12402 q 0.06201,0.0868 0.173633,0.16123 0.05581,0.10542 0.148828,0.19224 0.05581,0.0806 0.142627,0.16743 0.06201,0.0868 0.148828,0.16743 l 0.880566,1.0418 q 0.07441,0.0744 0.148828,0.17363 0.07441,0.0682 0.148828,0.16743 l 0.167432,0.16123 0.05581,-0.14882 -0.07441,-3.53467 -0.04961,-0.24185 0.02481,-0.17363 -0.02481,-0.0434 0.02481,-0.14883 -0.04961,-0.0558 -0.192237,-0.67593 -0.148828,-0.16123 -0.42168,-0.27285 -0.223242,-0.0806 h -0.31626 q -0.142627,-0.006 -0.291455,-0.0434 l 0.04961,-0.27285 0.07441,-0.0248 0.217041,0.0248 0.148828,-0.0248 0.05581,0.0248 h 1.854151 l 0.297656,0.0186 0.124024,-0.0186 0.04341,0.0186 h 0.04961 l 0.204639,-0.0186 0.07441,0.0186 0.21084,-0.0186 0.03101,0.0868 q -0.0124,0.11783 -0.07442,0.24805 l -0.316259,0.0186 q -0.148828,0.0124 -0.322461,0.0434 l -0.198438,0.10542 -0.241845,0.39688 q -0.04961,0.10542 -0.07441,0.22944 l 0.297656,6.61045 -0.03101,0.062 0.07441,0.96118 -0.02481,0.0682 0.05581,0.50229 -0.03101,0.20464 0.03101,0.062 v 0.19224 l 0.0186,0.0434 -0.0186,0.0124 q -0.03101,0.10542 -0.148828,0.10542 -0.111621,-0.031 -0.198438,-0.10542 l -0.124023,-0.16123 -0.613916,-0.66973 q -0.06821,-0.0682 -0.142627,-0.16743 l -0.489893,-0.5023 q -0.06201,-0.0868 -0.148828,-0.16743 l -0.297656,-0.35967 q -0.07441,-0.0682 -0.148828,-0.16743 l -0.167432,-0.14262 -1.525488,-1.71153 q -0.07441,-0.0744 -0.148828,-0.17363 l -0.167432,-0.14883 -0.434082,-0.5147 q -0.07441,-0.0744 -0.148828,-0.17363 -0.07441,-0.0682 -0.148828,-0.16743 l -1.37666,-1.48208 -0.148828,-0.19224 q -0.07442,-0.062 -0.148829,-0.16743 l -0.613916,-0.66352 q -0.05581,-0.062 -0.136425,-0.0806 l 0.359668,6.54224 q 0.0248,0.12402 0.07441,0.25425 l 0.124023,0.18603 0.173633,0.14263 0.409277,0.25425 0.223242,0.0558 0.322461,0.0248 0.04961,0.0248 0.148828,-0.0248 0.0186,0.0868 v 0.18603 h -0.855761 l -0.192237,-0.0186 -0.04961,0.0186 -0.204639,-0.0186 h -0.04341 v 0.0186 l -0.241846,-0.0186 -0.272851,0.0186 -0.266651,-0.0186 -0.05581,0.0186 -0.142627,-0.0186 -0.192236,0.0186 -0.07441,-0.0186 -0.148829,0.0186 -0.05581,-0.0186 h -0.04341 v 0.0186 l -0.03101,-0.0186 -0.142627,0.0186 -0.04961,-0.0186 H 61.08181 q -0.111621,-0.0496 -0.167432,-0.14883 0.0124,-0.093 0.117822,-0.13022 l 0.613916,-0.0806 q 0.117823,-0.0372 0.223243,-0.0992 l 0.217041,-0.10542 q 0.05581,-0.0744 0.09922,-0.16743 l 0.117823,-0.5085 -0.285254,-6.29418 0.0186,-0.14263 -0.0186,-0.0372 -0.03101,-0.65112 q 0,-0.11782 -0.04341,-0.25425 l -0.173633,-0.14883 -0.148828,-0.16123 -0.347266,-0.31626 q -0.08062,-0.062 -0.192236,-0.13022 -0.130225,-0.0248 -0.291455,-0.0372 -0.09922,-0.062 -0.09922,-0.19224 0.0124,-0.0682 0.09922,-0.16743 z m 15.211474,0.88677 0.84336,0.0248 0.37207,0.0744 0.322461,0.12402 q 0.173633,0.0496 0.396875,0.0744 l 0.297656,0.14882 0.347266,0.0992 0.272851,0.17364 0.644922,0.71933 q 0.10542,0.11162 0.198438,0.24805 l 0.198437,0.27285 0.148828,0.29766 0.09922,0.34726 q 0.05581,0.14883 0.09922,0.32246 l 0.0248,0.42168 q -0.0062,0.17364 -0.124023,0.34727 l -0.09922,0.29765 -0.173633,0.22325 q -0.111621,0.0992 -0.272851,0.14882 l -0.223242,0.0992 q -0.161231,0.0496 -0.347266,0.0744 H 78.68077 l -0.04961,-0.0496 -0.322461,-0.14883 -0.446484,-0.34727 -0.272852,-0.59531 -0.02481,-0.37207 0.02481,-0.37207 0.198438,-0.71933 0.0248,-0.42168 q -0.04341,-0.14263 -0.148828,-0.29766 l -0.198437,-0.24805 -0.520899,-0.17363 -0.322461,0.0992 -0.173632,0.0248 -0.396875,0.34727 q -0.111622,0.0992 -0.223243,0.22324 l -0.198437,0.24805 -0.744141,1.53789 q -0.03101,0.16123 -0.09922,0.34726 l -0.198438,0.71934 -0.124023,1.16582 0.0248,0.66973 0.04961,0.0744 0.0248,0.37207 0.347266,0.84336 0.173633,0.27285 q 0.124023,0.093 0.248047,0.22324 l 0.79375,0.44649 0.272851,0.0992 0.644922,0.0496 0.07441,-0.0248 q 0.117822,-0.006 0.248047,-0.0496 l 0.942578,-0.32246 q 0.124024,0.0868 0.223242,0.22324 -0.0248,0.16744 -0.198437,0.27286 l -0.248047,0.19843 -0.322461,0.14883 q -0.136426,0.0744 -0.297656,0.12402 -0.142627,0.0558 -0.272852,0.14883 -0.117822,0.0248 -0.248047,0.0992 l -0.892968,0.14883 -0.04961,-0.0248 -0.272851,0.0248 -0.297657,-0.0248 -0.272851,0.0248 -0.694531,-0.14883 -1.389063,-0.64492 -0.446484,-0.39688 q -0.130225,-0.0434 -0.198438,-0.19843 -0.10542,-0.10542 -0.198437,-0.24805 -0.09302,-0.11782 -0.173633,-0.27285 l -0.198438,-0.27285 -0.09922,-0.29766 q -0.07441,-0.15503 -0.124024,-0.34726 l -0.198437,-1.017 0.0248,-0.32246 q -0.04961,-0.17983 -0.04961,-0.39687 l 0.272852,-1.38907 0.272851,-0.5457 0.09922,-0.29765 0.719336,-1.09141 q 0.124023,-0.093 0.223242,-0.22324 l 1.314648,-0.96739 q 0.130225,-0.0806 0.297657,-0.14882 l 0.694531,-0.14883 q 0.142627,-0.031 0.297656,-0.0992 h 0.347266 z m 6.343799,0.86196 0.322461,0.0248 0.223243,-0.0248 0.07441,0.0248 1.53789,0.0744 0.07441,0.0248 h 0.446485 q 0.167431,0.006 0.322461,0.12402 l 0.0248,0.42168 -0.272851,0.12402 q -0.136426,0.006 -0.248047,0.14883 -0.09302,0.10542 -0.173633,0.24805 l 0.644922,3.77031 q 0.0124,0.11782 0.09922,0.19844 l 1.513086,-3.72071 -0.148829,-0.27285 q -0.105419,-0.10542 -0.248046,-0.19843 -0.148829,-0.031 -0.297657,-0.14883 l 0.04961,-0.39688 0.0248,-0.0992 0.248047,0.0248 0.07441,-0.0248 0.223242,0.0248 0.07442,-0.0248 0.198437,0.0248 1.190625,0.0248 0.02481,0.0992 0.0248,0.42168 q -0.09302,0.11782 -0.248046,0.19844 l -0.272852,0.14883 -0.248047,0.22324 -0.148828,0.24805 -0.545703,1.21543 q -0.04961,0.13642 -0.124024,0.27285 l -1.438671,3.24941 -0.09922,0.29766 -0.272852,0.5457 -0.09922,0.29766 -0.520899,1.0914 q -0.04341,0.13023 -0.124023,0.27285 l -0.124024,0.29766 -0.669726,1.09141 q -0.09302,0.11782 -0.223243,0.24804 l -0.223242,0.22325 q -0.10542,0.0868 -0.248047,0.17363 l -0.322461,0.12402 -0.272851,0.0496 -0.446484,-0.12402 -0.223243,-0.22324 -0.148828,-0.27286 q -0.06821,-0.16743 -0.09922,-0.37207 v -0.34726 l 0.0248,-0.0496 0.07441,-0.37207 0.322461,-0.57051 0.272852,-0.17363 q 0.179834,-0.0558 0.37207,-0.0744 l 0.272852,0.14883 q 0.117822,0.10542 0.223242,0.24805 l 0.248047,0.62012 0.09922,0.0744 0.148829,-0.12402 0.198437,-0.24805 0.595313,-1.14102 -1.21543,-7.01972 -0.148828,-0.29766 -0.223242,-0.19844 q -0.142627,-0.0558 -0.173633,-0.22324 v -0.34726 z m 13.351121,-2.127 0.403076,0.0372 0.142627,-0.0372 h 1.451074 l 0.111622,0.18604 v 0.61391 q -0.142627,0.16743 -0.396875,0.17984 -0.186036,0.0682 -0.36587,0.22324 l -0.07441,1.52549 0.03721,0.39687 -0.03721,0.11162 0.03721,2.31924 q 0.10542,-0.0806 0.179834,-0.21704 l 2.362647,-3.48506 0.179834,-0.39687 q -0.04341,-0.21704 -0.179834,-0.40308 l -0.508496,-0.0744 q -0.192237,-0.0186 -0.328662,-0.21704 v -0.57671 q 0.179834,-0.11163 0.365869,-0.14883 l 2.68511,0.0372 q 0.21084,0.13023 0.21704,0.39688 -0.006,0.23564 -0.10542,0.47749 l -0.47129,0.10542 -0.36587,0.25425 -1.668115,2.39985 q -0.09922,0.15503 -0.148828,0.35967 l 2.796733,5.99653 q 0.17363,0.093 0.32866,0.25425 l -0.0372,0.5395 -0.0372,0.22324 h -2.6107 v 0.031 l -0.03721,-0.031 -0.508496,0.031 q -0.198438,-0.13022 -0.217041,-0.39687 l 0.03721,-0.54571 q 0.217041,-0.0434 0.285254,-0.29145 l -1.451074,-3.23081 q -0.08062,-0.16743 -0.217041,-0.32867 l -0.47129,0.73174 -0.07441,0.35967 0.03721,0.11162 v 1.15962 l 0.03721,0.29146 -0.03721,0.11162 v 0.50849 h 0.03721 l -0.03721,0.10542 q 0.05581,0.20464 0.179834,0.40308 l 0.545704,0.031 q 0.136425,0.19223 0.148828,0.47749 -0.0062,0.23564 -0.07441,0.50229 h -3.522266 l -0.291455,0.0372 -0.07441,-0.0372 q -0.06201,-0.0124 -0.10542,-0.0682 l -0.03721,-0.54571 q 0.06821,-0.18603 0.254248,-0.32866 0.229443,-0.0186 0.471289,-0.10542 l 0.07441,-0.50849 -0.03721,-0.54571 0.03721,-0.40307 -0.03721,-0.10542 0.03721,-0.14883 -0.07441,-5.04775 -0.03721,-0.39688 0.03721,-0.11162 v -0.97979 h -0.03721 l 0.03721,-0.10542 v -0.18603 l -0.03721,-0.0372 0.03721,-0.0682 v -0.21704 q -0.124023,-0.16743 -0.328662,-0.25425 -0.229443,-0.0186 -0.471289,-0.11162 l 0.03721,-0.21704 -0.03721,-0.0744 v -0.21704 q 0.130225,-0.19843 0.396875,-0.21704 l 0.545703,0.0372 0.508496,-0.0744 q 0.241846,-0.0124 0.508496,-0.0744 z m 10.951266,0.76895 2.30064,0.093 0.66352,0.11783 0.57671,0.21084 0.48369,0.30385 0.21084,0.18604 0.17984,0.21084 0.14883,0.24184 q 0.0868,0.11163 0.15503,0.27286 l 0.21084,0.5705 0.093,0.69453 0.0558,5.07876 0.27286,0.72554 -0.11783,0.062 h -3.175 q -0.11782,-0.0744 -0.18603,-0.21084 l -0.0558,-0.33486 v -0.21084 l -0.12403,0.062 -0.21084,0.17984 -0.48369,0.30385 -0.30385,0.093 -0.24185,0.14883 -0.32866,0.062 q -0.11782,0.062 -0.27285,0.11782 l -1.14722,-0.031 -0.60772,-0.11783 q -0.13642,-0.0248 -0.30385,-0.093 l -0.24185,-0.0868 -0.72554,-0.48369 -0.17983,-0.21704 -0.30386,-0.48369 -0.17983,-0.60152 v -0.39067 q -0.0186,-0.10542 -0.031,-0.24185 l 0.031,-0.093 0.031,-0.36587 0.17984,-0.63252 0.15503,-0.24185 0.17983,-0.21084 0.42168,-0.36587 0.24185,-0.14883 1.14721,-0.39067 2.84634,-0.45268 0.21084,-0.15503 0.14883,-0.24185 q 0.0248,-0.0992 0.031,-0.24185 v -0.0868 h -0.031 q -0.0248,-0.14883 -0.11782,-0.27285 l -0.18604,-0.21084 -0.27285,-0.12403 -0.35967,-0.031 -0.093,-0.031 -0.57051,0.093 q -0.12403,0.0558 -0.24185,0.14883 -0.10542,0.0868 -0.18603,0.21084 l -0.14883,0.24184 q -0.0434,0.11162 -0.17984,0.18604 h -2.75332 q -0.0434,-0.16123 -0.062,-0.36587 l 0.15503,-0.63252 q 0.062,-0.11782 0.11782,-0.27285 l 0.15503,-0.24185 0.35967,-0.42168 0.24185,-0.15503 0.21084,-0.17983 0.5457,-0.24185 q 0.14263,-0.0248 0.30386,-0.093 z m 1.5751,4.99194 -0.36587,0.17983 -1.27124,0.33487 q -0.15503,0.0868 -0.29765,0.21084 -0.0992,0.14262 -0.18604,0.32866 v 0.24184 l 0.062,0.24185 q 0.11783,0.13022 0.27285,0.24185 0.16744,0.093 0.36587,0.15503 h 0.53951 l 0.39687,-0.12403 q 0.16123,-0.0868 0.32866,-0.21084 0.0992,-0.14883 0.18604,-0.33486 l 0.11782,-0.39068 v -0.87436 z m 8.25996,-5.06636 0.67593,0.0186 0.062,0.0186 q 0.15503,0.006 0.33487,0.062 l 0.49609,0.21704 0.35347,0.31626 0.5333,0.99219 0.0806,0.63252 -0.0186,0.062 v 0.27285 l -0.0186,0.0434 v 0.0558 l -0.17984,0.61392 -0.11782,0.27905 -0.29766,0.45268 q -0.0868,0.11163 -0.19843,0.21705 l -0.69454,0.49609 -0.0372,0.062 q 0.0248,0.0558 0.0806,0.11782 0.031,0.14263 0.0992,0.29766 l 0.11782,0.27905 q 0.0434,0.13023 0.11783,0.27285 0.0186,0.14263 0.0806,0.31626 l 0.76895,2.31924 0.16123,0.25425 0.23564,0.16123 0.26045,0.11782 q 0.093,0.0992 0.17363,0.23565 l -0.0186,0.27905 -0.0992,0.0186 q -0.11782,0.0682 -0.27285,0.0806 l -0.27905,-0.11782 h -1.11001 l -0.062,0.0186 h -0.31626 l -0.0558,-0.0186 -0.14262,-0.55811 -0.0992,-0.23564 -0.15503,-0.73174 -0.0806,-0.21704 -0.13642,-0.57671 -0.0806,-0.21704 -0.0372,-0.25425 q -0.0496,-0.13643 -0.0806,-0.29766 l -0.26045,-0.93017 -0.15503,-0.24185 q -0.11782,-0.0806 -0.27905,-0.0992 l -0.35967,-0.0558 h -0.19223 v 0.17984 l -0.29766,3.28662 0.5147,0.25425 q 0.11782,0.0558 0.23564,0.13642 0.13023,0.0496 0.17984,0.19844 l -0.0186,0.27905 -0.0434,0.16123 -0.49609,-0.0434 -0.0558,-0.0186 -1.34566,-0.0806 -0.27905,0.0434 h -0.33486 l -0.0434,0.0186 -0.63252,0.0372 -0.0558,-0.0186 0.0372,-0.31626 q 0.0682,-0.10542 0.17983,-0.21704 0.12403,-0.0248 0.27285,-0.0806 l 0.31626,-0.0992 q 0.10542,-0.0806 0.14263,-0.23565 l 0.39687,-4.37803 q 0,-0.14882 0.0372,-0.35346 l 0.062,-0.73174 q 0,-0.15503 0.0372,-0.35967 l 0.062,-0.75034 q 0,-0.15503 0.0372,-0.35967 l 0.0558,-0.71313 -0.68833,-0.0992 -0.14263,-0.0372 0.0434,-0.5147 0.0186,-0.0558 0.67593,-0.0434 0.0558,-0.0186 h 0.33487 l 0.0434,-0.0186 1.89756,-0.062 z m -0.76894,0.81236 q -0.0744,0.11782 -0.0806,0.27905 l -0.27905,3.1626 0.44028,0.0806 0.21704,-0.0186 0.0558,0.0186 0.4961,-0.13642 q 0.10542,-0.0496 0.19844,-0.11783 0.0744,-0.062 0.16123,-0.16123 0.0806,-0.0868 0.15503,-0.19843 l 0.26044,-0.83096 0.0558,-0.5147 -0.0186,-0.0558 -0.0186,-0.39687 q -0.0186,-0.13643 -0.062,-0.29766 l -0.0744,-0.27905 q -0.0434,-0.10542 -0.12402,-0.19844 l -0.17363,-0.17984 q -0.10542,-0.062 -0.24185,-0.11782 l -0.27285,-0.0806 z m 7.46621,-2.53008 1.73012,3.43545 q 0.0992,0.14262 0.16123,0.32246 l 0.92398,1.77973 0.18603,0.27286 0.11162,0.32246 q 0.0868,0.13022 0.21084,0.26045 l 1.63711,3.08198 q 0.062,0.14883 0.15503,0.30386 l 0.16743,0.32246 q 0.093,0.10542 0.20464,0.21084 0.11162,0.10542 0.25425,0.20463 l 0.29766,0.13643 0.44028,0.031 0.093,0.17983 -0.0434,0.0682 q -0.0992,0.0372 -0.23565,0.0744 l -0.59531,0.062 q -0.15503,0.0496 -0.37207,0.0744 l -0.5519,0.062 q -0.14263,0.0372 -0.32246,0.0496 l -1.63711,0.25425 -0.0496,-0.34726 0.32246,-0.0682 0.29766,-0.16123 q 0.13022,-0.0744 0.22944,-0.22944 l 0.031,-0.16123 -0.031,-0.0682 v -0.16123 l -0.36587,-0.99219 -0.32246,-0.62632 q -0.0682,-0.13643 -0.18604,-0.27905 -0.0434,-0.16123 -0.15503,-0.32246 l -0.11782,-0.29146 -0.0682,-0.0744 -2.39985,0.27905 q -0.17984,0.031 -0.41548,0.0434 l -0.41548,0.0744 q -0.17984,0.006 -0.39068,0.0434 -0.17983,0.0558 -0.17983,0.27905 l -0.37827,1.88516 q -0.0372,0.18603 -0.0682,0.41548 l -0.0248,0.37207 h 0.0248 q 0.0124,0.13642 0.12402,0.27285 0.11162,0.10542 0.27285,0.18604 0.17363,0.0434 0.39068,0.0744 h 0.22944 l 0.0744,0.0248 0.062,-0.0248 q 0.0124,0.13022 0.093,0.27285 l -0.0434,0.0496 -0.0248,-0.031 -0.68833,0.0992 q -0.17983,0.0124 -0.42168,0.0682 l -1.88516,0.22944 q -0.0124,-0.0496 -0.0434,-0.0744 l 0.0434,-0.062 q -0.0372,-0.0682 -0.0434,-0.18603 0.15503,-0.0434 0.34107,-0.13643 0.11782,-0.0434 0.22944,-0.14262 0.11162,-0.0806 0.21084,-0.21084 l 0.16123,-0.24805 0.24805,-1.17822 q 0.062,-0.14883 0.093,-0.36587 l 0.44028,-1.93477 q 0.0496,-0.16123 0.093,-0.37207 l 0.18603,-0.76274 q 0.031,-0.17984 0.093,-0.39688 0.0248,-0.17983 0.0868,-0.38447 l 0.67593,-3.00137 q 0.0496,-0.14883 0.093,-0.37207 l 0.15503,-0.66972 v -0.11163 l 0.32246,-1.24023 0.0496,-0.32246 q 0.10542,-0.062 0.22945,-0.16743 z m -0.14263,2.74712 -0.27285,1.31465 q -0.0558,0.16743 -0.0682,0.36586 l -0.68833,3.09439 q 0.14263,-0.0186 0.29146,-0.0744 l 0.093,0.031 0.26045,-0.0496 h 0.0434 v -0.0248 l 0.0186,0.0248 1.87275,-0.22944 q 0.18604,-0.0434 0.45889,-0.0744 0.14263,-0.006 0.18603,-0.13642 l -0.18603,-0.34727 q -0.062,-0.16123 -0.18604,-0.34106 l -0.29145,-0.60152 q -0.0868,-0.15502 -0.16743,-0.36586 l -0.20464,-0.32247 -0.13643,-0.32246 q -0.0682,-0.16743 -0.19223,-0.35346 l -0.24805,-0.5333 -0.0744,-0.062 -0.32246,-0.66972 q -0.0682,-0.16123 -0.18603,-0.32246 z m 8.01812,-2.76573 0.57051,0.0372 0.21704,-0.0186 q 0.0248,0.0124 0.0744,0.0186 l 0.5705,0.0558 0.74414,0.21704 0.19224,0.13643 q 0.093,0.0434 0.19844,0.11782 l 0.15503,0.17363 q 0.0744,0.062 0.15503,0.16123 l 0.29145,0.32867 0.13643,0.19843 0.21704,0.40928 0.13642,0.5271 0.0372,0.74414 -0.0186,0.27285 -0.0558,0.17364 0.0744,0.23564 -0.0186,0.47129 0.0186,0.0558 -0.0186,0.29766 0.0186,0.17363 -0.0186,0.0558 v 0.90537 h 0.0186 q -0.006,0.031 -0.0372,0.0558 l 0.0372,0.23565 -0.0186,0.58291 0.0186,0.19843 -0.0372,0.0558 0.0186,0.25425 -0.0186,1.31465 0.0186,0.0558 -0.0186,0.21704 0.0186,0.25425 -0.0372,0.44648 0.0186,0.0434 v 0.0558 q 0,0.13023 -0.0372,0.27285 l 0.0186,0.0806 -0.0186,0.19224 -0.35347,0.89917 -0.23564,0.41547 -0.29146,0.32867 -0.5271,0.43408 -0.94258,0.32866 -0.25424,0.0372 -0.60152,-0.0372 -0.29765,0.0186 -0.85577,-0.0992 -0.88056,-0.38448 -0.17984,-0.14262 -0.46508,-0.4837 -0.27286,-0.37207 -0.19843,-0.43408 q -0.0434,-0.0992 -0.0806,-0.22944 l -0.0558,-0.27905 -0.0372,-0.5085 0.0186,-0.0558 -0.0434,-0.48989 0.0248,-0.0558 v -1.91617 l -0.0248,-0.17983 0.0248,-0.0558 v -0.31626 l -0.0248,-0.11782 0.0248,-0.0372 -0.0248,-0.42788 0.0434,-0.5519 -0.0186,-0.5271 -0.0248,-0.0744 0.0248,-0.25425 q 0.0186,-0.14262 0.0186,-0.31626 l 0.0186,-0.29145 -0.0186,-0.21704 0.0186,-0.0558 v -0.21704 l -0.0186,-0.0744 v -0.27905 l 0.0186,-0.0372 0.0806,-0.81855 0.17363,-0.47129 q 0.0372,-0.11782 0.0992,-0.23565 l 0.093,-0.21704 0.14263,-0.19223 q 0.062,-0.0806 0.15503,-0.15503 l 0.15503,-0.16123 q 0.0744,-0.062 0.15503,-0.15503 l 0.62632,-0.32866 0.70693,-0.21705 0.22945,-0.0372 0.19843,0.0186 z m 0.5333,2.34405 -0.33486,0.0372 -0.42788,0.23565 -0.16123,0.17363 -0.13643,0.21704 -0.093,0.40928 q 0.0248,0.006 0.0372,0.0434 l -0.0372,0.0558 0.0372,0.11782 -0.0186,0.21704 0.0186,0.0744 -0.0186,0.5519 -0.0186,0.0558 0.0186,0.27285 -0.0186,0.15503 0.0186,0.062 v 0.32867 l -0.0186,0.062 0.0186,0.17363 -0.0186,0.27285 0.0372,0.58911 -0.0372,0.31006 0.0186,0.19844 -0.0186,0.0558 0.0186,0.17983 -0.0186,0.0558 0.0186,0.19844 -0.0186,0.0744 0.0186,0.50849 -0.0186,0.062 q -0.006,0.11783 -0.0434,0.23565 l 0.0434,0.23564 0.0186,0.62012 q 0.0186,0.13022 0.0744,0.25425 0.0248,0.13022 0.0806,0.25425 0.0682,0.093 0.15503,0.17983 l 0.17983,0.15503 0.22945,0.11782 0.60771,-0.0372 0.23564,-0.11782 0.15503,-0.17983 0.21704,-0.46509 0.0186,-0.29766 -0.0186,-0.32866 q 0.0186,-0.14263 0.0186,-0.31626 l -0.0372,-0.81855 0.0558,-0.39068 -0.0186,-0.25424 0.0186,-0.062 -0.0186,-0.21084 0.0186,-0.062 -0.0186,-0.62632 0.0186,-0.27285 -0.0372,-0.21084 0.0372,-0.062 V 125.225 q -0.0186,-0.13643 -0.0186,-0.31006 l 0.0186,-0.27285 v -0.70694 l -0.0186,-0.19223 0.0186,-0.11783 -0.0992,-0.5705 -0.31006,-0.34727 L 131.8,122.5895 q -0.0868,-0.0682 -0.21084,-0.11782 z m 3.144,0.58291 v -0.0372 h -0.0186 z m 3.08817,-1.69912 0.0806,0.0186 q -0.006,0.13643 -0.0992,0.26665 l -0.23564,0.22944 q -0.0496,0.16743 -0.062,0.38448 l -0.23564,2.91455 0.21704,-0.22945 q 0.0744,-0.11162 0.19844,-0.24804 0.093,-0.11783 0.17983,-0.26665 l 1.45728,-1.73013 q 0.0744,-0.11782 0.19844,-0.24805 0.0868,-0.11782 0.16123,-0.28525 l 0.13642,-0.31006 q -0.0806,-0.11162 -0.23564,-0.22944 l -0.11783,-0.17364 0.093,-0.0744 h 1.84175 l 0.15503,-0.0186 0.0434,0.0186 h 0.21704 l 0.15503,-0.0186 0.062,0.0186 q 0,0.0186 0.0372,0.0372 l -0.0372,0.093 q -0.10542,0.11163 -0.26045,0.19224 l -0.83096,0.99839 q -0.0868,0.11162 -0.21704,0.22944 -0.0682,0.12403 -0.19223,0.27285 l -0.19844,0.21084 q -0.0682,0.0868 -0.16123,0.19224 l -0.17363,0.26665 -0.41548,0.49609 q -0.10542,0.10542 -0.19844,0.25425 -0.0992,0.093 -0.21704,0.24805 l -0.19844,0.24805 q 0.0248,0.14262 0.0992,0.30385 l 0.41548,0.94258 q 0.0682,0.13643 0.13642,0.32866 0.0682,0.12403 0.13643,0.30386 l 0.14263,0.31006 q 0.0682,0.13022 0.13642,0.32246 0.0744,0.13643 0.13643,0.31006 0.0744,0.12402 0.14263,0.30386 l 0.13642,0.31006 q 0.0682,0.13022 0.13643,0.32246 0.0682,0.12402 0.13642,0.31005 l 0.14263,0.30386 q 0.0682,0.13643 0.13643,0.32866 0.0682,0.12403 0.13642,0.30386 l 0.29766,0.17363 0.062,0.27286 -0.0992,0.0186 H 139.167 l -0.0806,-0.0186 q -0.0496,-0.0992 -0.0806,-0.21704 l 0.11782,-0.0558 q 0.11782,-0.0682 0.19844,-0.21084 l 0.0434,-0.0558 -0.99219,-2.53007 -0.13643,-0.27286 q -0.0372,-0.15502 -0.11782,-0.32246 l -0.0992,-0.31005 -0.0806,-0.15503 q -0.0682,0.0372 -0.13643,0.0992 l -0.59531,0.75035 q -0.10542,0.11162 -0.19224,0.26665 l -0.14263,1.97197 0.0434,0.42788 q 0,0.16743 0.0992,0.34106 l 0.13643,0.0992 q -0.0186,0.0806 -0.062,0.17364 -0.19224,0.031 -0.41548,0.0372 h -1.38286 l -0.15503,-0.0186 0.0186,-0.27285 q 0.13022,-0.0558 0.27905,-0.17363 0.0558,-0.13643 0.0992,-0.32247 l 0.0186,-0.34726 q 0,-0.18604 0.0372,-0.40308 l 0.57671,-7.03833 q -0.031,-0.15503 -0.16123,-0.28525 l -0.11782,-0.13643 0.0186,-0.19223 0.27905,-0.0186 0.0806,0.0186 v -0.0372 l 0.5519,0.0186 0.0558,-0.0186 0.0186,0.0186 0.0434,-0.0186 h 0.80615 z m 7.04454,0.59531 0.47128,0.11782 q 0.19224,0.0434 0.40308,0.14263 0.15503,0.0992 0.32866,0.26045 0.11782,0.11162 0.26045,0.28525 0.0682,0.17363 0.19224,0.37827 l 0.11782,0.44649 q 0.0434,0.21084 0.0682,0.47129 l 0.0682,0.37827 -0.0186,0.093 0.11782,1.98438 -0.0248,0.0744 -2.28823,0.14263 -0.26045,0.0434 -0.093,0.16743 0.0186,0.21084 q 0.006,0.23565 0.0496,0.5209 l 0.0744,1.0604 q 0.0124,0.20464 0.0682,0.47129 l 0.21084,0.35347 q 0.14263,0.11162 0.35347,0.21704 l 0.40307,0.0248 0.093,-0.0248 q 0.19844,-0.0186 0.35347,-0.19224 0.12402,-0.16123 0.19223,-0.37827 l 0.0186,-0.4961 -0.0434,-0.32866 0.0248,-0.0682 q 0.16123,-0.13643 0.39688,-0.16743 l 0.0992,0.0248 0.23564,-0.0248 h 0.0682 v -0.0248 l 0.0682,0.0248 0.0496,-0.0248 0.11782,0.0248 0.0682,0.5209 -0.0186,0.0682 -0.0248,0.63872 -0.11782,0.44648 -0.47129,0.61392 -0.37827,0.19224 q -0.18603,0.0744 -0.42788,0.11782 -0.17983,0.0372 -0.42168,0.0434 l -0.44648,-0.0186 -0.42788,-0.14262 q -0.16744,-0.0806 -0.35347,-0.21084 l -0.28525,-0.28526 -0.23565,-0.32866 q -0.0806,-0.18603 -0.11782,-0.42788 -0.0806,-0.17983 -0.13643,-0.42788 v -0.23565 l -0.0496,-0.23564 -0.19223,-2.52388 q -0.0372,-0.22944 -0.0434,-0.49609 l -0.0744,-1.53789 q 0.006,-0.22944 0.0744,-0.47129 0.0496,-0.19224 0.16123,-0.42168 0.0744,-0.16743 0.19224,-0.35347 0.11162,-0.13642 0.30385,-0.26045 0.13643,-0.13022 0.33487,-0.23564 0.18603,-0.0806 0.42168,-0.11782 z m -0.21084,1.11001 q -0.19224,0.0682 -0.37828,0.21704 -0.12402,0.14883 -0.21084,0.35347 l 0.0434,1.55649 q 0.006,0.22324 0.0744,0.49609 l 0.23564,0.093 0.16743,-0.0248 0.5395,-0.0186 q 0.20464,-0.006 0.47129,-0.0496 0.0744,-0.17363 0.093,-0.42168 l -0.16123,-1.44487 -0.14263,-0.39687 q -0.13642,-0.13023 -0.32866,-0.26045 -0.17983,-0.062 -0.40307,-0.0992 z"
       id="text1"
       aria-label="Fancy KarAOke" />
  </g>
</svg>
