<?xml version="1.0" encoding="UTF-8" standalone="no"?>
<!-- Created with Inkscape (http://www.inkscape.org/) -->

<svg
   width="27.057917mm"
   height="18.356882mm"
   viewBox="0 0 27.057917 18.356882"
   version="1.1"
   id="svg1"
   xmlns="http://www.w3.org/2000/svg"
   xmlns:svg="http://www.w3.org/2000/svg">
  <defs
     id="defs1" />
  <g
     id="layer1"
     transform="translate(-96.840731,-121.87541)">
    <path
       style="font-size:19.7556px;font-family:'PistOl Sex';-inkscape-font-specification:'PistOl Sex';fill:#f7f8f7;stroke-width:0.264583"
       d="m 109.44849,121.8754 q 0.13504,0.22186 0.14469,0.54019 v 0.49196 h 0.0386 l -0.0386,0.11576 0.0965,1.11896 -0.0289,0.0868 0.0868,1.15756 -0.0289,0.0868 q -0.21222,0.11576 -0.48231,0.1254 -0.24116,0 -0.54984,0.0579 l -0.2701,-0.0289 -0.29903,0.0289 q -0.25081,0 -0.60772,0.0579 l -0.11575,-0.0289 -4.2926,0.2701 -0.18328,0.0289 -0.0579,-0.0289 h -0.0675 q -0.2701,0.01 -0.56914,0.0965 l 0.0289,0.99357 0.0289,0.0868 0.0965,1.88103 1.74597,-0.1254 0.0675,0.0289 2.86495,-0.1447 0.0965,-0.0386 0.0289,0.0386 0.0868,-0.0386 0.87782,-0.0289 0.1254,-0.0289 0.0579,0.0289 h 0.0579 l 0.36656,-0.0289 0.18328,1.69775 -0.0386,0.3955 0.0386,0.0868 -0.0386,0.29904 0.0965,0.30868 -0.0579,0.24116 0.0289,0.0868 -0.0289,0.33762 h -0.73312 l -0.0868,0.0579 h -0.99357 l -0.3955,0.0579 -0.0965,-0.0289 q -0.21222,0.0289 -0.48232,0.0289 l -0.54019,0.0965 -0.27009,-0.0386 -0.0965,0.0386 -0.21221,-0.0386 -0.0868,0.0386 h -0.0868 l -0.0965,0.0289 -0.0289,-0.0289 -1.38907,0.11576 -0.27009,-0.0289 -0.0965,0.0289 h -0.42444 l 0.0386,0.21221 v 0.42444 l 0.0289,0.0868 0.24116,4.74597 0.0579,0.21222 -0.0289,0.42444 0.0289,0.0965 0.0289,0.62701 -0.0579,0.2508 h -0.791 l -0.0868,0.0289 -3.810288,0.17363 -0.115755,0.0386 -0.308681,-0.0386 -0.02894,-0.24115 0.02894,-0.0579 -0.05788,-1.11897 -0.02894,-0.11576 v -0.5209 l -0.02894,-0.11575 -0.06752,-1.36013 -0.02894,-0.0289 0.02894,-0.0675 v -0.17363 l -0.02894,-0.0965 v -0.51125 l -0.02894,-0.1254 -0.02894,-0.96463 -0.02894,-0.1254 -0.02894,-0.24116 0.02894,-0.0579 -0.02894,-0.0579 0.02894,-0.0289 v -0.0965 h -0.02894 l 0.02894,-0.0289 -0.18328,-2.209 0.05788,-0.0868 -0.05788,-0.0868 q 0.02894,-0.22186 0.02894,-0.49196 l -0.05788,-1.08038 h -0.02894 l 0.02894,-0.12541 -0.15434,-2.69131 -0.05788,-0.42444 0.02894,-0.21222 -0.02894,-0.14469 0.02894,-0.0965 -0.02894,-0.0289 -0.02894,-0.29904 0.02894,-0.24115 -0.05788,-0.18328 0.02894,-0.33762 -0.08682,-1.02251 0.02894,-0.24116 -0.02894,-0.0675 v -0.51125 l -0.03858,-0.0868 -0.05788,-0.30868 0.125401,-0.0289 1.331188,-0.11576 0.115756,0.0289 2.295819,-0.15434 0.0965,0.0289 1.05145,-0.0868 0.0675,0.0289 0.0289,-0.0289 6.73311,-0.36656 0.1254,-0.0289 h 0.51125 z m 4.10931,1.01286 0.62701,0.0579 0.22187,-0.0579 h 2.25723 l 0.17363,0.28939 v 0.95498 q -0.22186,0.26045 -0.61736,0.27974 -0.28939,0.10611 -0.56913,0.34727 l -0.11576,2.37298 0.0579,0.61737 -0.0579,0.17363 0.0579,3.60771 q 0.16399,-0.1254 0.27974,-0.33762 l 3.67524,-5.42121 0.27974,-0.61736 q -0.0675,-0.33762 -0.27974,-0.62701 l -0.791,-0.11576 q -0.29903,-0.0289 -0.51125,-0.33762 v -0.8971 q 0.27974,-0.17364 0.56913,-0.23151 l 4.17685,0.0579 q 0.32797,0.20257 0.33762,0.61737 -0.01,0.36655 -0.16399,0.74276 l -0.73312,0.16399 -0.56913,0.39549 -2.59485,3.73312 q -0.15434,0.24116 -0.23151,0.55948 l 4.35047,9.32796 q 0.2701,0.1447 0.51126,0.3955 l -0.0579,0.83923 -0.0579,0.34727 h -4.06109 v 0.0482 l -0.0579,-0.0482 -0.791,0.0482 q -0.30868,-0.20257 -0.33762,-0.61737 l 0.0579,-0.84887 q 0.33762,-0.0675 0.44373,-0.45337 l -2.25723,-5.02572 q -0.12541,-0.26045 -0.33763,-0.51125 l -0.73311,1.13826 -0.11576,0.55948 0.0579,0.17364 v 1.80385 l 0.0579,0.45338 -0.0579,0.17363 v 0.791 h 0.0579 l -0.0579,0.16398 q 0.0868,0.31833 0.27974,0.62701 l 0.84888,0.0482 q 0.21221,0.29904 0.23151,0.74277 -0.01,0.36656 -0.11576,0.78135 h -5.47909 l -0.45338,0.0579 -0.11575,-0.0579 q -0.0965,-0.0193 -0.16399,-0.10611 l -0.0579,-0.84888 q 0.10611,-0.28938 0.3955,-0.51125 0.35691,-0.0289 0.73312,-0.16399 l 0.11575,-0.79099 -0.0579,-0.84887 0.0579,-0.62701 -0.0579,-0.16399 0.0579,-0.23151 -0.11575,-7.85208 -0.0579,-0.61736 0.0579,-0.17364 v -1.52411 h -0.0579 l 0.0579,-0.16399 v -0.28939 l -0.0579,-0.0579 0.0579,-0.10611 v -0.33762 q -0.19293,-0.26045 -0.51125,-0.3955 -0.35692,-0.0289 -0.73312,-0.17363 l 0.0579,-0.33762 -0.0579,-0.11576 v -0.33762 q 0.20257,-0.30868 0.61736,-0.33762 l 0.84887,0.0579 0.791,-0.11576 q 0.3762,-0.0193 0.79099,-0.11575 z"
       id="text1"
       aria-label="FK" />
  </g>
</svg>
